# Blender 3.6.17
# www.blender.org
mtllib obj.mtl
o Cube
v 0.989191 1.015784 -1.003726
v 1.000000 -1.000000 -1.000000
v 1.000000 1.000000 1.000000
v 1.000000 -1.000000 1.000000
v -1.002741 1.008435 -0.999208
v -1.000000 -1.000000 -1.000000
v -1.000000 1.000000 1.000000
v -1.000000 -1.000000 1.000000
v 1.000000 0.000000 5.000000
v 1.000000 -1.000000 5.000000
v -1.000000 0.000000 5.000000
v -1.000000 -1.000000 5.000000
v 1.000000 0.000000 -5.000000
v 1.000000 -1.000000 -5.000000
v -1.000000 0.000000 -5.000000
v -1.000000 -1.000000 -5.000000
v -1.000000 -1.000000 8.000000
v -1.000000 0.000000 8.000000
v 1.000000 -1.000000 8.000000
v 1.000000 0.000000 8.000000
v -7.000000 -1.000000 -1.000000
v -7.000000 -0.300000 1.000000
v -7.000000 -1.000000 1.000000
v -4.000000 0.000000 -1.000000
v 1.500000 1.000000 -1.000000
v 1.500000 -1.000000 -1.000000
v 1.500000 1.000000 1.000000
v 1.500000 -1.000000 1.000000
v -7.000000 -0.300000 -1.000000
v -4.000000 -1.000000 1.000000
v -4.000000 0.000000 1.000000
v -4.000000 -1.000000 -1.000000
v -1.000000 -1.000000 8.500000
v -1.000000 0.000000 8.500000
v 1.000000 -1.000000 8.500000
v 1.000000 0.000000 8.500000
v -1.100000 0.100000 -9.125000
v -1.100000 0.100000 -9.375000
v 1.000000 0.400000 -9.000000
v -1.000000 0.400000 -9.000000
v 1.000000 0.400000 -9.500000
v -1.000000 0.400000 -9.500000
v 1.000000 0.000000 -9.500000
v 1.000000 -1.000000 -9.500000
v -1.000000 0.000000 -9.500000
v -1.000000 -1.000000 -9.500000
v 1.000000 0.000000 -9.000000
v 1.000000 -1.000000 -9.000000
v -1.000000 0.000000 -9.000000
v -1.000000 -1.000000 -9.000000
v -1.000000 0.400000 8.000000
v 1.000000 0.400000 8.000000
v -1.000000 0.400000 8.500000
v 1.000000 0.400000 8.500000
v -1.100000 0.100000 -9.125000
v -1.100000 0.100000 -9.375000
v -1.100000 0.300000 -9.375000
v -1.100000 0.300000 -9.125000
v -1.000000 0.400000 -9.000000
v 1.000000 0.400000 -9.000000
v -1.000000 0.400000 -9.500000
v 1.000000 0.400000 -9.500000
v -1.000000 -1.000000 -9.500000
v -1.000000 0.000000 -9.500000
v 1.000000 -1.000000 -9.500000
v 1.000000 0.000000 -9.500000
v -1.000000 -1.000000 -9.000000
v -1.000000 0.000000 -9.000000
v 1.000000 -1.000000 -9.000000
v 1.000000 0.000000 -9.000000
v -1.100000 0.300000 -9.375000
v -1.100000 0.300000 -9.125000
v -1.100000 0.100000 8.125000
v -1.100000 0.100000 8.375000
v -1.100000 0.300000 8.125000
v -1.100000 0.300000 8.375000
v -3.100000 0.100000 -9.125000
v -3.100000 0.100000 -9.375000
v -3.100000 0.100000 -9.125000
v -3.100000 0.100000 -9.375000
v -3.100000 0.300000 -9.375000
v -3.100000 0.300000 -9.125000
v -3.100000 0.300000 -9.375000
v -3.100000 0.300000 -9.125000
v -3.100000 0.100000 8.125000
v -3.100000 0.300000 8.375000
v -3.100000 0.300000 8.125000
v -3.100000 0.100000 8.375000
v -3.100000 0.100000 8.125000
v -3.100000 0.100000 8.375000
v -3.100000 0.300000 8.125000
v -3.100000 0.300000 8.375000
v -8.000001 -1.000000 1.000000
v -8.000001 -1.000000 -1.000000
v 3.000000 2.000000 -2.000000
v 3.000000 -2.000000 -2.000000
v 3.000000 2.000000 2.000000
v 3.000000 -2.000000 2.000000
vn -1.0000 -0.0000 -0.0000
vn 1.0000 0.0054 0.0013
vn -0.0000 -0.0000 -1.0000
vn -0.0000 -1.0000 -0.0000
vn -0.0037 1.0000 0.0079
vn 1.0000 -0.0000 -0.0000
vn -0.0000 0.9701 0.2425
vn -0.0041 0.9697 -0.2444
vn -0.0000 1.0000 -0.0000
vn -0.3162 0.9487 -0.0000
vn -0.0995 0.9950 -0.0000
vn -0.5547 -0.8321 -0.0000
vn 0.0308 0.9995 0.0077
vn -0.0000 -0.0000 1.0000
vn 0.0001 0.0004 -1.0000
vn -0.7809 -0.0000 0.6247
vn -0.7071 -0.7071 -0.0000
vn -0.7809 -0.0000 -0.6247
vn -0.7071 0.7071 -0.0000
vn -0.5735 0.8192 -0.0000
vn -0.5547 -0.0000 -0.8321
vn -0.5547 -0.0000 0.8321
vn -0.5547 0.8321 -0.0000
vn 0.0072 -0.0018 -1.0000
vn -0.0000 1.0000 0.0042
vn -0.0000 0.9692 -0.2463
vn -1.0000 -0.0014 -0.0003
vn -0.3189 0.9478 0.0044
vt 0.822314 0.000129
vt 0.822314 0.349219
vt 0.264868 0.289253
vt 0.397237 0.578377
vt 0.272237 0.703377
vt 0.000129 0.132498
vt 0.132498 0.000129
vt 0.529607 0.867502
vt 0.264868 0.710747
vt 0.132498 0.421623
vt 0.397237 0.999871
vt 0.272237 0.281502
vt 0.521351 0.453882
vt 0.404607 0.570627
vt 0.000129 0.553992
vt 0.132498 0.843117
vt 0.420232 0.586252
vt 0.147237 0.859246
vt 0.822057 0.349219
vt 0.822057 0.000129
vt 0.662233 0.349219
vt 0.662233 0.000129
vt 0.661976 0.313638
vt 0.397237 0.156884
vt 0.529607 0.024514
vt 0.529607 0.446008
vt 0.256612 0.297127
vt 0.263982 0.711252
vt 0.388982 0.586252
vt 0.662233 0.698567
vt 0.822057 0.349476
vt 0.822057 0.698567
vt 0.139868 0.429878
vt 0.388982 0.164758
vt 0.670232 0.726877
vt 0.131612 0.422127
vt 0.662233 0.349476
s 0
usemtl Material
f 8/1/1 11/2/1 7/2/1
f 2/3/2 13/4/2 1/4/2
f 2/3/3 25/5/3 26/3/3
f 23/6/4 94/7/4 21/7/4
f 2/3/4 8/6/4 6/7/4
f 5/8/5 3/9/5 1/4/5
f 12/1/1 18/2/1 11/2/1
f 4/10/6 9/9/6 10/10/6
f 4/10/4 12/6/4 8/6/4
f 7/11/7 9/9/7 3/9/7
f 19/10/4 33/6/4 17/6/4
f 1/12/8 15/13/8 5/14/8
f 6/15/1 15/16/1 16/15/1
f 6/7/4 14/3/4 2/3/4
f 45/16/9 38/16/9 56/16/9
f 74/2/4 85/2/4 73/2/4
f 32/15/3 29/16/3 24/16/3
f 30/6/4 21/7/4 32/7/4
f 7/11/10 24/17/10 31/18/10
f 24/8/11 22/11/11 31/11/11
f 26/19/12 98/20/12 28/20/12
f 3/9/13 25/3/13 1/4/13
f 4/10/14 27/9/14 3/9/14
f 2/21/4 28/20/4 4/22/4
f 8/6/4 32/7/4 6/7/4
f 6/15/15 24/16/15 5/16/15
f 8/1/14 31/2/14 30/1/14
f 30/1/14 22/2/14 23/1/14
f 40/8/9 72/8/9 58/8/9
f 42/8/9 62/4/9 61/8/9
f 70/4/14 40/8/14 68/8/14
f 70/4/9 60/4/9 39/4/9
f 11/11/9 20/9/9 9/9/9
f 9/9/6 19/10/6 10/10/6
f 10/10/4 17/6/4 12/6/4
f 36/23/14 33/24/14 35/25/14
f 20/9/6 35/10/6 19/10/6
f 40/8/16 37/8/16 68/8/16
f 17/1/1 34/2/1 18/2/1
f 63/15/9 45/16/9 46/15/9
f 65/3/9 46/7/9 44/3/9
f 46/7/3 43/4/3 44/3/3
f 42/8/9 71/8/9 57/8/9
f 40/8/9 60/4/9 59/8/9
f 48/3/6 66/4/6 47/4/6
f 50/7/4 65/3/4 48/3/4
f 53/26/16 74/26/16 34/26/16
f 49/16/1 63/15/1 50/15/1
f 34/2/17 73/2/17 18/2/17
f 60/4/9 42/8/9 59/8/9
f 51/11/9 54/9/9 52/9/9
f 18/11/3 52/9/3 20/9/3
f 36/23/14 53/26/14 34/26/14
f 20/9/6 54/9/6 36/9/6
f 45/16/18 71/16/18 61/16/18
f 51/11/19 76/11/19 53/11/19
f 49/16/9 37/16/9 55/16/9
f 56/16/9 78/16/9 80/16/9
f 13/27/9 68/28/9 15/29/9
f 66/4/9 44/3/9 43/4/9
f 18/11/18 75/11/18 51/11/18
f 70/4/9 48/3/9 47/4/9
f 45/16/3 62/4/3 43/4/3
f 66/4/9 62/4/9 41/4/9
f 16/7/4 69/3/4 14/3/4
f 66/4/6 60/4/6 47/4/6
f 67/15/9 49/16/9 50/15/9
f 14/3/6 70/4/6 13/4/6
f 15/16/1 67/15/1 16/15/1
f 69/3/9 50/7/9 48/3/9
f 49/16/17 38/16/17 64/16/17
f 42/8/19 72/8/19 59/8/19
f 75/11/9 92/11/9 76/11/9
f 73/11/3 91/11/3 75/11/3
f 76/26/14 90/26/14 74/26/14
f 78/16/1 79/16/1 82/8/1
f 57/8/9 83/8/9 81/8/9
f 55/16/9 77/16/9 79/16/9
f 58/8/14 77/8/14 37/8/14
f 58/8/9 84/8/9 82/8/9
f 55/16/4 78/16/4 38/16/4
f 57/8/9 84/8/9 72/8/9
f 56/16/3 83/16/3 71/16/3
f 92/11/9 87/11/9 86/11/9
f 86/26/1 89/11/1 88/26/1
f 85/2/9 88/2/9 89/2/9
f 91/11/9 89/11/9 87/11/9
f 90/26/9 86/26/9 88/26/9
f 29/8/20 93/11/20 22/11/20
f 23/1/14 22/2/14 93/1/14
f 29/16/3 21/15/3 94/16/3
f 95/30/6 98/31/6 96/32/6
f 25/5/21 96/33/21 26/3/21
f 28/10/22 97/9/22 27/9/22
f 27/10/23 95/3/23 25/3/23
f 8/1/1 12/1/1 11/2/1
f 2/3/6 14/3/6 13/4/6
f 2/3/24 1/4/24 25/5/24
f 23/6/4 93/6/4 94/7/4
f 2/3/4 4/10/4 8/6/4
f 5/8/25 7/11/25 3/9/25
f 12/1/1 17/1/1 18/2/1
f 4/10/6 3/9/6 9/9/6
f 4/10/4 10/10/4 12/6/4
f 7/11/7 11/11/7 9/9/7
f 19/10/4 35/10/4 33/6/4
f 1/12/26 13/34/26 15/13/26
f 6/15/27 5/16/27 15/16/27
f 6/7/4 16/7/4 14/3/4
f 45/16/9 64/16/9 38/16/9
f 74/2/4 90/2/4 85/2/4
f 32/15/3 21/15/3 29/16/3
f 30/6/4 23/6/4 21/7/4
f 7/11/28 5/35/28 24/17/28
f 24/8/11 29/8/11 22/11/11
f 26/19/12 96/19/12 98/20/12
f 3/9/9 27/10/9 25/3/9
f 4/10/14 28/10/14 27/9/14
f 2/21/4 26/19/4 28/20/4
f 8/6/4 30/6/4 32/7/4
f 6/15/3 32/15/3 24/16/3
f 8/1/14 7/2/14 31/2/14
f 30/1/14 31/2/14 22/2/14
f 40/8/9 59/8/9 72/8/9
f 42/8/9 41/4/9 62/4/9
f 70/4/14 39/4/14 40/8/14
f 70/4/9 47/4/9 60/4/9
f 11/11/9 18/11/9 20/9/9
f 9/9/6 20/9/6 19/10/6
f 10/10/4 19/10/4 17/6/4
f 36/23/14 34/26/14 33/24/14
f 20/9/6 36/9/6 35/10/6
f 40/8/16 58/8/16 37/8/16
f 17/1/1 33/1/1 34/2/1
f 63/15/9 64/16/9 45/16/9
f 65/3/9 63/7/9 46/7/9
f 46/7/3 45/16/3 43/4/3
f 42/8/9 61/8/9 71/8/9
f 40/8/9 39/4/9 60/4/9
f 48/3/6 65/3/6 66/4/6
f 50/7/4 63/7/4 65/3/4
f 53/26/16 76/26/16 74/26/16
f 49/16/1 64/16/1 63/15/1
f 34/2/17 74/2/17 73/2/17
f 60/4/9 41/4/9 42/8/9
f 51/11/9 53/11/9 54/9/9
f 18/11/3 51/11/3 52/9/3
f 36/23/14 54/23/14 53/26/14
f 20/9/6 52/9/6 54/9/6
f 45/16/18 56/16/18 71/16/18
f 51/11/19 75/11/19 76/11/19
f 49/16/9 68/16/9 37/16/9
f 56/16/9 38/16/9 78/16/9
f 13/27/9 70/36/9 68/28/9
f 66/4/9 65/3/9 44/3/9
f 18/11/18 73/11/18 75/11/18
f 70/4/9 69/3/9 48/3/9
f 45/16/3 61/16/3 62/4/3
f 66/4/9 43/4/9 62/4/9
f 16/7/4 67/7/4 69/3/4
f 66/4/6 41/4/6 60/4/6
f 67/15/9 68/16/9 49/16/9
f 14/3/6 69/3/6 70/4/6
f 15/16/1 68/16/1 67/15/1
f 69/3/9 67/7/9 50/7/9
f 49/16/17 55/16/17 38/16/17
f 42/8/19 57/8/19 72/8/19
f 75/11/9 91/11/9 92/11/9
f 73/11/3 85/11/3 91/11/3
f 76/26/14 92/26/14 90/26/14
f 81/8/9 83/8/9 80/16/9
f 81/8/9 80/16/9 78/16/9
f 82/8/9 84/8/9 81/8/9
f 82/8/1 81/8/1 78/16/1
f 79/16/9 77/8/9 82/8/9
f 57/8/9 71/8/9 83/8/9
f 55/16/9 37/16/9 77/16/9
f 58/8/14 82/8/14 77/8/14
f 58/8/9 72/8/9 84/8/9
f 55/16/4 79/16/4 78/16/4
f 57/8/9 81/8/9 84/8/9
f 56/16/3 80/16/3 83/16/3
f 92/11/9 91/11/9 87/11/9
f 86/26/1 87/11/1 89/11/1
f 85/2/9 90/2/9 88/2/9
f 91/11/9 85/11/9 89/11/9
f 90/26/9 92/26/9 86/26/9
f 29/8/20 94/8/20 93/11/20
f 95/30/6 97/37/6 98/31/6
f 25/5/21 95/4/21 96/33/21
f 28/10/22 98/10/22 97/9/22
f 27/10/23 97/10/23 95/3/23
